<svg xmlns="http://www.w3.org/2000/svg" width="150.705" height="97.92" viewBox="0 0 150.705 97.92">
  <g id="Group_22" data-name="Group 22" transform="translate(-882.094 -2690.077)">
    <g id="Group_16" data-name="Group 16" transform="translate(-5 90)">
      <g id="Group_15" data-name="Group 15">
        <g id="Group_14" data-name="Group 14" transform="translate(887.094 2600.077)">
          <g id="Rectangle_23" data-name="Rectangle 23" transform="translate(0 -0.001)" fill="rgba(255,255,255,0.07)">
            <path d="M56.194,0l79.255,8.471L82.088,60.007,0,47.112Z" stroke="none"/>
            <path d="M 81.79518127441406 59.32788467407227 L 134.1492614746094 8.841701507568359 L 56.40948104858398 0.4995611011981964 L 1.330990672111511 46.73262023925781 L 81.79518127441406 59.32788467407227 M 82.08843231201172 60.0074577331543 L 3.347464007674716e-05 47.11232376098633 L 56.19400405883789 0.0002195483539253473 L 135.4485626220703 8.471034049987793 L 82.08843231201172 60.0074577331543 Z" stroke="none" fill="#fff"/>
          </g>
          <g id="Rectangle_24" data-name="Rectangle 24" transform="translate(3.054 10.259)" fill="rgba(255,255,255,0.07)">
            <path d="M57.568,0,139.6,9.485,85.108,63.821,0,49.477Z" stroke="none"/>
            <path d="M 84.79426574707031 63.09478378295898 L 138.2568664550781 9.868398666381836 L 57.79557037353516 0.5285248756408691 L 1.372225284576416 49.08425140380859 L 84.79426574707031 63.09478378295898 M 85.10764312744141 63.82102203369141 L 3.835772531601833e-06 49.47737884521484 L 57.5675048828125 0 L 139.5954437255859 9.484914779663086 L 85.10764312744141 63.82102203369141 Z" stroke="none" fill="#fff"/>
          </g>
          <g id="Rectangle_25" data-name="Rectangle 25" transform="translate(6.473 21.688)" fill="rgba(255,255,255,0.07)">
            <path d="M59.08,0l85.152,10.669L88.523,68.231,0,52.184Z" stroke="none"/>
            <path d="M 88.18642425537109 67.45079803466797 L 142.8495635986328 11.06701755523682 L 59.32248306274414 0.5620089173316956 L 1.418440699577332 51.77621459960938 L 88.18642425537109 67.45079803466797 M 88.52327728271484 68.23141479492188 L 4.759272997034714e-05 52.18447875976562 L 59.07996368408203 0 L 144.2320098876953 10.66909599304199 L 88.52327728271484 68.23141479492188 Z" stroke="none" fill="#fff"/>
          </g>
          <g id="Rectangle_26" data-name="Rectangle 26" transform="translate(36.994 16.294)" fill="rgba(255,255,255,0.07)">
            <path d="M24.9,0,60.745,4.333,36.41,26.892,0,21.67Z" stroke="none"/>
            <path d="M 36.14219665527344 26.2669620513916 L 59.43215942382812 4.707623958587646 L 25.13472175598145 0.5456430912017822 L 1.326620221138 21.29151916503906 L 36.14219665527344 26.2669620513916 M 36.40980529785156 26.89229011535645 L 6.5088905103039e-05 21.67013168334961 L 24.90121269226074 6.251881359276013e-07 L 60.7446403503418 4.333029270172119 L 36.40980529785156 26.89229011535645 Z" stroke="none" fill="#fff"/>
          </g>
        </g>
        <line id="Line_52" data-name="Line 52" y2="13" transform="translate(896.5 2644.5)" fill="none" stroke="#fff" stroke-width="1" opacity="0.5"/>
        <line id="Line_53" data-name="Line 53" y2="13" transform="translate(905.5 2659.5)" fill="none" stroke="#fff" stroke-width="1" opacity="0.5"/>
        <line id="Line_54" data-name="Line 54" y2="15" transform="translate(1015.5 2610.5)" fill="none" stroke="#fff" stroke-width="1" opacity="0.5"/>
        <line id="Line_55" data-name="Line 55" y2="16" transform="translate(1023.5 2623.5)" fill="none" stroke="#fff" stroke-width="1" opacity="0.5"/>
      </g>
    </g>
    <g id="Group_17" data-name="Group 17" transform="translate(-5 98)" opacity="0.3">
      <g id="Group_15-2" data-name="Group 15">
        <g id="Group_14-2" data-name="Group 14" transform="translate(887.094 2600.077)">
          <g id="Rectangle_23-2" data-name="Rectangle 23" transform="translate(0 0)" fill="rgba(255,255,255,0.07)">
            <path d="M56.194,0l79.255,8.471L82.088,60.007,0,47.112Z" stroke="none"/>
            <path d="M 81.79518127441406 59.32768249511719 L 134.1492614746094 8.841490745544434 L 56.40948104858398 0.4993416666984558 L 1.330990672111511 46.73240661621094 L 81.79518127441406 59.32768249511719 M 82.08843231201172 60.00724792480469 L 3.347464007674716e-05 47.11211013793945 L 56.19400405883789 0 L 135.4485626220703 8.470822334289551 L 82.08843231201172 60.00724792480469 Z" stroke="none" fill="#fff"/>
          </g>
          <g id="Rectangle_24-2" data-name="Rectangle 24" transform="translate(3.054 10.26)" fill="rgba(255,255,255,0.07)">
            <path d="M57.568,0,139.6,9.485,85.108,63.821,0,49.477Z" stroke="none"/>
            <path d="M 84.79426574707031 63.09478378295898 L 138.2568664550781 9.868398666381836 L 57.79557037353516 0.5285248756408691 L 1.372225284576416 49.08425140380859 L 84.79426574707031 63.09478378295898 M 85.10764312744141 63.82102203369141 L 3.835772531601833e-06 49.47737884521484 L 57.5675048828125 0 L 139.5954437255859 9.484914779663086 L 85.10764312744141 63.82102203369141 Z" stroke="none" fill="#fff"/>
          </g>
          <g id="Rectangle_25-2" data-name="Rectangle 25" transform="translate(6.473 21.688)" fill="rgba(255,255,255,0.07)">
            <path d="M59.08,0l85.152,10.669L88.523,68.231,0,52.184Z" stroke="none"/>
            <path d="M 88.18642425537109 67.45079803466797 L 142.8495635986328 11.06701755523682 L 59.32248306274414 0.5620089173316956 L 1.418440699577332 51.77621459960938 L 88.18642425537109 67.45079803466797 M 88.52327728271484 68.23141479492188 L 4.759272997034714e-05 52.18447875976562 L 59.07996368408203 0 L 144.2320098876953 10.66909599304199 L 88.52327728271484 68.23141479492188 Z" stroke="none" fill="#fff"/>
          </g>
          <g id="Rectangle_26-2" data-name="Rectangle 26" transform="translate(36.994 16.294)" fill="rgba(255,255,255,0.07)">
            <path d="M24.9,0,60.745,4.333,36.41,26.892,0,21.67Z" stroke="none"/>
            <path d="M 36.14219665527344 26.2669620513916 L 59.43215942382812 4.707623958587646 L 25.13472175598145 0.5456430912017822 L 1.326620221138 21.29151916503906 L 36.14219665527344 26.2669620513916 M 36.40980529785156 26.89229011535645 L 6.5088905103039e-05 21.67013168334961 L 24.90121269226074 6.251881359276013e-07 L 60.7446403503418 4.333029270172119 L 36.40980529785156 26.89229011535645 Z" stroke="none" fill="#fff"/>
          </g>
        </g>
        <line id="Line_52-2" data-name="Line 52" y2="13" transform="translate(896.5 2644.5)" fill="none" stroke="#fff" stroke-width="1" opacity="0.5"/>
        <line id="Line_53-2" data-name="Line 53" y2="13" transform="translate(905.5 2659.5)" fill="none" stroke="#fff" stroke-width="1" opacity="0.5"/>
        <line id="Line_54-2" data-name="Line 54" y2="15" transform="translate(1015.5 2610.5)" fill="none" stroke="#fff" stroke-width="1" opacity="0.5"/>
        <line id="Line_55-2" data-name="Line 55" y2="16" transform="translate(1023.5 2623.5)" fill="none" stroke="#fff" stroke-width="1" opacity="0.5"/>
      </g>
    </g>
  </g>
</svg>
